# xmcd
#
# Track frame offsets: 
#        150
#        16405
#        40282
#        62638
#        89798
#        105799
#        124678
#        147683
#        162085
#        184860
#
# Disc length: 2820 seconds
#
# Revision: 0
# Processed by: cddbd v1.5.2PL0 Copyright (c) Steve Scherf et al.
# Submitted via: ExactAudioCopy v1.0b3
#
DISCID=860b020a
DTITLE=Bang Chau - Gap Nhau Lam Ngo
DYEAR=1989
DGENRE=World Pop
TTITLE0=Tinh yeu thuy thu
TTITLE1=Biet den bao gio
TTITLE2=Gap nhau lam ngo
TTITLE3=Pho dem
TTITLE4=Minh mat nhau bao gio
TTITLE5=Trang the
TTITLE6=Nua dem ngoai pho
TTITLE7=Tinh ca nguoi di bien
TTITLE8=Tau dem nam cu
TTITLE9=Nang chieu
EXTD=
EXTT0=
EXTT1=
EXTT2=
EXTT3=
EXTT4=
EXTT5=
EXTT6=
EXTT7=
EXTT8=
EXTT9=
PLAYORDER=
